# xmcd
#
# Track frame offsets:
#	150
#	11341
#	23089
#	38031
#	49394
#	63097
#	75040
#	88690
#	99687
#	112263
#
# Disc length: 1717 seconds
# Revision: 0
# Processed by: cddbd v1.5.2PL0 Copyright (c) Steve Scherf et al.
# Submitted via: dBpowerAMP V12.0
#
DISCID=6f06b30a
DTITLE=Michael Kaye - Nashville Memories
DYEAR=2006
DGENRE=Country
TTITLE0=Hello Walls
TTITLE1=Young Love
TTITLE2=Almost Persuaded
TTITLE3=There Goes My Everything
TTITLE4=Devil Woman
TTITLE5=She Thinks I Still Care
TTITLE6=Heartaches by the Number
TTITLE7=Please Help Me, I'm Falling
TTITLE8=Sea of Heartbreak
TTITLE9=It's Four in the Morning
EXTD=
EXTT0=
EXTT1=
EXTT2=
EXTT3=
EXTT4=
EXTT5=
EXTT6=
EXTT7=
EXTT8=
EXTT9=
PLAYORDER=
